# xmcd
#
# Track frame offsets:
#	150
#	42870
#	104574
#	194208
#
# Disc length: 3048 seconds
#
# Revision: 1
# Processed by: cddbd v1.5.2PL0 Copyright (c) Steve Scherf et al.
# Submitted via: audiograbber 1.83.01
#
DISCID=380be604
DTITLE=Grateful Dead - 78-10-20 Winterland Arena, San Francisco CA
DYEAR=1900
DGENRE=
TTITLE0=Mississippi Half-Step
TTITLE1=Franklin's Tower
TTITLE2=Dancing In The Streets
TTITLE3=Drums
EXTD=
EXTT0=
EXTT1=
EXTT2=
EXTT3=
PLAYORDER=
